<svg width="32" height="32" viewBox="0 0 32 32" fill="none" xmlns="http://www.w3.org/2000/svg">
    <path fill-rule="evenodd" clip-rule="evenodd" d="M15.8438 12C17.7767 12 19.3438 10.433 19.3438 8.5C19.3438 6.567 17.7767 5 15.8438 5C13.9108 5 12.3438 6.567 12.3438 8.5C12.3438 10.433 13.9108 12 15.8438 12ZM15.8438 14C18.8813 14 21.3438 11.5376 21.3438 8.5C21.3438 5.46243 18.8813 3 15.8438 3C12.8062 3 10.3438 5.46243 10.3438 8.5C10.3438 11.5376 12.8062 14 15.8438 14Z" fill="#C4C4C4"/>
    <path fill-rule="evenodd" clip-rule="evenodd" d="M9.8635 16H22.1365L26 19.0908V27H6V19.0908L9.8635 16ZM10.5651 18L8 20.0521V25H24V20.0521L21.4349 18H10.5651Z" fill="#C4C4C4"/>
</svg>
