<svg width="33" height="32" viewBox="0 0 33 32" fill="none" xmlns="http://www.w3.org/2000/svg">
<path fill-rule="evenodd" clip-rule="evenodd" d="M19.5 6.01562H13.5V4.01562H19.5V6.01562Z" fill="#C4C4C4"/>
<path fill-rule="evenodd" clip-rule="evenodd" d="M16.5 25.9844C20.9183 25.9844 24.5 22.4027 24.5 17.9844C24.5 13.5661 20.9183 9.98438 16.5 9.98438C12.0817 9.98438 8.5 13.5661 8.5 17.9844C8.5 22.4027 12.0817 25.9844 16.5 25.9844ZM16.5 27.9844C22.0228 27.9844 26.5 23.5072 26.5 17.9844C26.5 12.4615 22.0228 7.98438 16.5 7.98438C10.9772 7.98438 6.5 12.4615 6.5 17.9844C6.5 23.5072 10.9772 27.9844 16.5 27.9844Z" fill="#C4C4C4"/>
<path d="M17.3727 17.4832C17.6488 17.9615 17.4849 18.5731 17.0067 18.8492C16.5284 19.1254 15.9168 18.9615 15.6406 18.4832C15.3645 18.0049 15.5284 17.3933 16.0067 17.1172C16.4849 16.841 17.0965 17.0049 17.3727 17.4832Z" fill="#C4C4C4"/>
<rect x="16.0078" y="17.1172" width="4" height="2" transform="rotate(-30 16.0078 17.1172)" fill="#C4C4C4"/>
</svg>
