<svg width="91" height="38" viewBox="0 0 91 38" fill="none" xmlns="http://www.w3.org/2000/svg">
<path d="M89.3032 9.36254C88.176 7.76924 86.6032 6.57522 84.5887 5.78045C82.5742 4.98569 80.2093 4.58643 77.4941 4.58643H63.4648V37.3638H64.5387H70.3767H71.6524V36.1962V36.1924V26.5535V11.0914H77.2504C78.8879 11.0914 80.0646 11.4982 80.7844 12.3081C81.5041 13.1217 81.8659 14.1198 81.8659 15.3063C81.8659 16.7113 81.447 17.7584 80.613 18.4439C79.779 19.1332 78.6556 19.476 77.2504 19.476H74.0134V25.9358H77.4941C80.2093 25.9358 82.5742 25.5629 84.5887 24.8134C86.6032 24.0638 88.1722 22.9074 89.3032 21.348C90.4304 19.7886 90.9978 17.8036 90.9978 15.4005C90.9978 12.971 90.4304 10.9558 89.3032 9.36254Z" fill="white"/>
<path d="M19.5091 17.191V4.67662L27.533 4.67285V37.4089H26.3232H20.8607H19.5053V24.7177H8.02392V37.4089H6.96353C6.86271 37.4315 6.75443 37.4503 6.63869 37.4503H1.36657C1.24709 37.4503 1.13507 37.4352 1.03053 37.4089H0V4.67662H8.02392V17.191H19.5091Z" fill="white"/>
<path d="M56.6199 37.3833H48.4707V-2.28882e-05H56.6199V37.3833Z" fill="white"/>
<path d="M42.6648 37.3833H34.5156V17.5126H42.6648V37.3833Z" fill="white"/>
</svg>
