<svg width="20" height="20" viewBox="0 0 20 20" fill="none" xmlns="http://www.w3.org/2000/svg">
<path d="M16.3112 2.48075H14.4738V0.46514C14.4738 0.208267 14.2682 0 14.0145 0H12.4834C12.2297 0 12.0241 0.208267 12.0241 0.46514V2.48075H7.12448V0.46514C7.12448 0.208267 6.91881 0 6.66514 0H5.13402C4.88035 0 4.67469 0.208267 4.67469 0.46514V2.48075H2.83734C1.82259 2.48075 1 3.31374 1 4.34131V17.9854C1 19.013 1.82259 19.846 2.83734 19.846H16.3112C17.3259 19.846 18.1485 19.013 18.1485 17.9854V4.34131C18.1485 3.31374 17.3259 2.48075 16.3112 2.48075ZM16.0815 17.9854H3.06701C3.0061 17.9854 2.94768 17.9609 2.90461 17.9173C2.86154 17.8737 2.83734 17.8145 2.83734 17.7529V6.20187H16.3112V17.7529C16.3112 17.8145 16.287 17.8737 16.2439 17.9173C16.2009 17.9609 16.1424 17.9854 16.0815 17.9854ZM14.0586 10.2079L8.61127 15.6798C8.43117 15.8607 8.14034 15.8596 7.96165 15.6772L5.08732 12.743C4.90868 12.5606 4.90983 12.2661 5.08993 12.0852L5.95956 11.2116C6.13966 11.0307 6.4305 11.0319 6.60914 11.2143L8.29735 12.9377L12.549 8.66688C12.7291 8.48598 13.0199 8.48714 13.1986 8.66952L14.0612 9.5501C14.2399 9.73248 14.2387 10.027 14.0586 10.2079Z" fill="#8D8D8D"/>
</svg>
