<svg width="20" height="20" viewBox="0 0 20 20" fill="none" xmlns="http://www.w3.org/2000/svg">
<path d="M20 14.1119V2.14286C20 0.959375 19.0406 0 17.8571 0H2.14286C0.959375 0 0 0.959375 0 2.14286V17.8566C0 19.0401 0.959375 19.9995 2.14286 19.9995H14.1124C14.6807 19.9995 15.2258 19.7737 15.6276 19.3718L19.3724 15.6271C19.7742 15.2252 20 14.6802 20 14.1119ZM14.2857 17.6833V14.2852H17.6838L14.2857 17.6833ZM17.8571 2.14286V12.1423H13.2143C12.6225 12.1423 12.1429 12.622 12.1429 13.2138V17.8566H2.14286V2.14286H17.8571Z" fill="#8D8D8D"/>
</svg>
