<svg width="20" height="21" viewBox="0 0 20 21" fill="none" xmlns="http://www.w3.org/2000/svg">
<path d="M7.75735 15.0221V14.2721H7.00735H4.50368C3.53531 14.2721 2.75 13.487 2.75 12.5184V12.0165H16.2721V12.5184C16.2721 13.487 15.4867 14.2721 14.5184 14.2721H12.0147H11.2647V15.0221V17.5257C11.2647 18.4943 10.4794 19.2794 9.51103 19.2794C8.54267 19.2794 7.75735 18.4943 7.75735 17.5257V15.0221ZM3.25184 0.75H15.7702C16.0473 0.75 16.2721 0.974803 16.2721 1.25184V9.26471H2.75V1.25184C2.75 0.974802 2.9748 0.75 3.25184 0.75ZM11.1999 17.5257C11.1999 16.5926 10.4434 15.8369 9.51103 15.8369C8.57868 15.8369 7.82215 16.5926 7.82215 17.5257C7.82215 18.4583 8.57848 19.2146 9.51103 19.2146C10.4436 19.2146 11.1999 18.4583 11.1999 17.5257Z" fill="#8D8D8D" stroke="#8D8D8D" stroke-width="1.5"/>
<path d="M3.44727 8.42019V1.57861H15.5516V8.42019H3.44727Z" fill="white"/>
<rect x="12.9199" y="1.05273" width="1.05255" height="5.26275" rx="0.526275" fill="#8D8D8D"/>
<rect x="10.8145" y="1.05273" width="1.05255" height="3.15765" rx="0.526275" fill="#8D8D8D"/>
</svg>
