<svg width="20" height="20" viewBox="0 0 20 20" fill="none" xmlns="http://www.w3.org/2000/svg">
<path d="M10.6284 11.4743C10.7205 11.6338 10.6659 11.8377 10.5064 11.9298C10.3469 12.0218 10.143 11.9672 10.0509 11.8077C9.95883 11.6482 10.0135 11.4443 10.173 11.3522C10.3324 11.2602 10.5364 11.3148 10.6284 11.4743Z" fill="#8D8D8D" stroke="#8D8D8D"/>
<path fill-rule="evenodd" clip-rule="evenodd" d="M12.8346 1.66688H7.83398V0H12.8346V1.66688Z" fill="#8D8D8D"/>
<path d="M10.3344 18.8096C14.2929 18.8096 17.502 15.6006 17.502 11.642C17.502 7.68352 14.2929 4.4745 10.3344 4.4745C6.3759 4.4745 3.16688 7.68352 3.16688 11.642C3.16688 15.6006 6.3759 18.8096 10.3344 18.8096ZM18.1688 11.642C18.1688 15.9689 14.6613 19.4765 10.3344 19.4765C6.00759 19.4765 2.5 15.9689 2.5 11.642C2.5 7.31521 6.00759 3.80762 10.3344 3.80762C14.6613 3.80762 18.1688 7.31521 18.1688 11.642Z" fill="#8D8D8D" stroke="#8D8D8D"/>
<rect x="10.4911" y="11.072" width="2.50033" height="0.833442" transform="rotate(-30 10.4911 11.072)" fill="#8D8D8D" stroke="#8D8D8D" stroke-width="0.833442"/>
</svg>
